# xmcd CD database file
# Copyright (C) 1993-1998 Ti Kan
#
# Track frame offsets:
#  187
#  10507
#  20732
#  32815
#  45222
#  58270
#  74367
#  86477
#  94380
#  106070
#
# Disc length: 1538 seconds
#
# Revision: 1
# Processed by: cddbd v1.4b41PL1 Copyright (c) Steve Scherf et al.
# Submitted via: CDWizzard Release:4.35
#
DISCID=7706000a
DTITLE=DOLLY PARTON - Golden Streets Of Glory
DYEAR=1900
DGENRE=
TTITLE0=I Believe
TTITLE1=Yes I See God
TTITLE2=The Master's Hand
TTITLE3=Heaven's Just A Prayer Away
TTITLE4=Golden Streets Of Glory
TTITLE5=How Great Thou Art
TTITLE6=I'll Keep Climbing
TTITLE7=Book Of Life
TTITLE8=Wings Of A Dove
TTITLE9=Lord Hold My Hand
EXTD=
EXTT0=
EXTT1=
EXTT2=
EXTT3=
EXTT4=
EXTT5=
EXTT6=
EXTT7=
EXTT8=
EXTT9=
PLAYORDER=
